<svg width="20" height="20" viewBox="0 0 20 20" fill="none" xmlns="http://www.w3.org/2000/svg">
<path d="M14.1242 1.70833C13.0233 0.606667 11.5583 0 10 0C8.44167 0 6.9775 0.606667 5.875 1.70833C3.60083 3.9825 3.60083 7.68333 5.88167 9.96417L10 13.9917L14.1242 9.9575C15.2258 8.85583 15.8333 7.39083 15.8333 5.8325C15.8333 4.27417 15.2258 2.81083 14.1242 1.70833ZM10 8.325C8.61917 8.325 7.5 7.20583 7.5 5.825C7.5 4.44417 8.61917 3.325 10 3.325C11.3808 3.325 12.5 4.44417 12.5 5.825C12.5 7.20583 11.3808 8.325 10 8.325ZM0.639167 15.0008L5.93167 15.0092L5.30583 20H0L0.0125 18.6075L0.639167 15.0008ZM6.22917 12.6358L6.14083 13.3425L0.929167 13.3342L1.79917 8.3325H2.92917C3.29833 9.38 3.9025 10.3417 4.71667 11.1558L6.22917 12.6358ZM20 18.7492V19.9992H14.6942L14.07 15.0217L19.3575 15.03L20 18.7492ZM12.39 15.0192L13.015 19.9992H6.98583L7.61167 15.0117L8.66083 15.0133L10.0008 16.3233L11.3358 15.0175L12.39 15.0192ZM19.07 13.3633L13.8608 13.355L13.7708 12.635L15.3033 11.1358C16.1083 10.3308 16.7075 9.375 17.075 8.3325H18.2008L19.07 13.3633Z" fill="#0052BA"/>
</svg>
