<svg width="48" height="48" viewBox="0 0 48 48" fill="none" xmlns="http://www.w3.org/2000/svg">
<path d="M24 48C37.2548 48 48 37.2548 48 24C48 10.7452 37.2548 0 24 0C10.7452 0 0 10.7452 0 24C0 37.2548 10.7452 48 24 48Z" fill="white"/>
<path d="M23.9999 14.7301C27.0184 14.7301 27.3735 14.7449 28.5646 14.7967C29.667 14.8485 30.2662 15.0334 30.6657 15.1888C31.191 15.3959 31.5683 15.6401 31.9678 16.0322C32.3599 16.4243 32.6115 16.8016 32.8112 17.3343C32.9666 17.7338 33.1515 18.333 33.2033 19.4354C33.2551 20.6265 33.2699 20.9816 33.2699 24.0001C33.2699 27.0186 33.2551 27.3737 33.2033 28.5648C33.1515 29.6672 32.9666 30.2665 32.8112 30.666C32.6041 31.1912 32.3599 31.5686 31.9678 31.9681C31.5757 32.3676 31.1984 32.6117 30.6657 32.8115C30.2662 32.9668 29.667 33.1518 28.5646 33.2036C27.3735 33.2554 27.0184 33.2702 23.9999 33.2702C20.9814 33.2702 20.6263 33.2554 19.4351 33.2036C18.3328 33.1518 17.7335 32.9668 17.334 32.8115C16.8088 32.6043 16.4314 32.3602 16.0319 31.9681C15.6398 31.5759 15.3883 31.1986 15.1885 30.666C15.0332 30.2665 14.8482 29.6672 14.7964 28.5648C14.7446 27.3737 14.7298 27.0186 14.7298 24.0001C14.7298 20.9816 14.7446 20.6265 14.7964 19.4354C14.8482 18.333 15.0332 17.7338 15.1885 17.3343C15.3957 16.809 15.6398 16.4317 16.0319 16.0322C16.424 15.6401 16.8014 15.3885 17.334 15.1888C17.7335 15.0334 18.3328 14.8485 19.4351 14.7967C20.6263 14.7449 20.9814 14.7301 23.9999 14.7301ZM23.9999 12.6956C20.9296 12.6956 20.5449 12.7104 19.339 12.7621C18.133 12.8139 17.3118 13.0063 16.5942 13.2874C15.8544 13.5759 15.2181 13.9607 14.5893 14.5895C13.9604 15.2184 13.5757 15.8472 13.2872 16.5944C13.006 17.3121 12.8137 18.1333 12.7619 19.3392C12.7101 20.5451 12.6953 20.9298 12.6953 24.0001C12.6953 27.0704 12.7101 27.4551 12.7619 28.661C12.8137 29.8669 13.006 30.6882 13.2872 31.4058C13.5757 32.1456 13.9604 32.7819 14.5893 33.4107C15.2181 34.0396 15.847 34.4243 16.5942 34.7128C17.3118 34.9939 18.133 35.1863 19.339 35.2381C20.5449 35.2899 20.9296 35.3047 23.9999 35.3047C27.0702 35.3047 27.4549 35.2899 28.6608 35.2381C29.8667 35.1863 30.6879 34.9939 31.4055 34.7128C32.1528 34.4243 32.7816 34.0396 33.4105 33.4107C34.0393 32.7819 34.424 32.153 34.7126 31.4058C34.9937 30.6882 35.1861 29.8669 35.2379 28.661C35.2896 27.4551 35.3044 27.0704 35.3044 24.0001C35.3044 20.9298 35.2896 20.5451 35.2379 19.3392C35.1861 18.1333 34.9937 17.3121 34.7126 16.5944C34.424 15.8546 34.0393 15.2184 33.4105 14.5895C32.7816 13.9607 32.1528 13.5759 31.4055 13.2874C30.6879 13.0063 29.8667 12.8139 28.6608 12.7621C27.4549 12.7104 27.0702 12.6956 23.9999 12.6956Z" fill="black"/>
<path d="M24 18.1925C20.7966 18.1925 18.1924 20.7893 18.1924 24.0002C18.1924 27.211 20.7892 29.8078 24 29.8078C27.2109 29.8078 29.8077 27.211 29.8077 24.0002C29.8077 20.7893 27.2109 18.1925 24 18.1925ZM24 27.7659C21.9211 27.7659 20.2343 26.0791 20.2343 24.0002C20.2343 21.9212 21.9211 20.2344 24 20.2344C26.0789 20.2344 27.7657 21.9212 27.7657 24.0002C27.7657 26.0791 26.0789 27.7659 24 27.7659Z" fill="black"/>
<path d="M31.3908 17.9633C31.3908 18.7107 30.784 19.3174 30.0367 19.3174C29.2894 19.3174 28.6826 18.7107 28.6826 17.9633C28.6826 17.216 29.2894 16.6093 30.0367 16.6093C30.784 16.6093 31.3908 17.216 31.3908 17.9633Z" fill="black"/>
</svg>
