<svg width="48" height="48" viewBox="0 0 48 48" fill="none" xmlns="http://www.w3.org/2000/svg">
<path d="M24 48C37.2548 48 48 37.2548 48 24C48 10.7452 37.2548 0 24 0C10.7452 0 0 10.7452 0 24C0 37.2548 10.7452 48 24 48Z" fill="white"/>
<path fill-rule="evenodd" clip-rule="evenodd" d="M35.4308 23.4082C35.2755 17.238 30.1929 12.2812 23.9339 12.2812C17.675 12.2812 12.7107 17.1196 12.4444 23.1936C12.4444 23.3638 12.437 23.5265 12.437 23.6967C12.437 25.857 13.0363 27.8693 14.0868 29.5931L12.0153 35.7189L18.3852 33.6918C20.035 34.5944 21.929 35.1122 23.9413 35.1122C30.2964 35.1122 35.4456 30 35.4456 23.6967C35.4456 23.6005 35.4456 23.5043 35.4456 23.4082H35.4308ZM23.9339 33.2923C21.966 33.2923 20.146 32.7078 18.6146 31.7016L14.9006 32.8854L16.1065 29.3194C14.9524 27.7362 14.2644 25.7904 14.2644 23.6893C14.2644 23.3786 14.2792 23.0678 14.3162 22.7571C14.7896 17.8965 18.9253 14.0937 23.9413 14.0937C28.9573 14.0937 33.1892 18 33.5813 22.9421C33.6035 23.1936 33.6109 23.4378 33.6109 23.6893C33.6109 28.9791 29.2681 33.2849 23.9413 33.2849L23.9339 33.2923Z" fill="black"/>
<path fill-rule="evenodd" clip-rule="evenodd" d="M29.2085 25.9975C28.92 25.8569 27.5365 25.1763 27.2776 25.0875C27.0186 24.9913 26.8337 24.9469 26.6413 25.2281C26.4564 25.5092 25.9089 26.138 25.7461 26.323C25.576 26.508 25.4206 26.5302 25.1321 26.3896C24.851 26.249 23.941 25.9605 22.8682 24.9987C22.0322 24.2589 21.4625 23.3489 21.2998 23.0678C21.137 22.7866 21.285 22.6387 21.4256 22.4981C21.5513 22.3723 21.7067 22.1726 21.8473 22.0098C21.8842 21.958 21.9138 21.921 21.9508 21.8766C22.0174 21.7731 22.0618 21.6769 22.1284 21.5437C22.2246 21.3588 22.1802 21.196 22.1062 21.0554C22.0396 20.9149 21.4699 19.5388 21.2332 18.9765C21.0038 18.4142 20.7671 18.5104 20.5969 18.5104C20.4268 18.5104 20.2492 18.4808 20.0569 18.4808C19.8645 18.4808 19.5612 18.5474 19.3022 18.8286C19.0433 19.1097 18.3183 19.7903 18.3183 21.1664C18.3183 21.4919 18.3775 21.8101 18.4662 22.1208C18.7548 23.1048 19.3688 23.9186 19.4724 24.0591C19.613 24.2441 21.4182 27.159 24.2887 28.2835C27.1592 29.4007 27.1592 29.0234 27.6771 28.979C28.195 28.9346 29.3491 28.3057 29.5784 27.6473C29.8152 26.9962 29.8152 26.434 29.7486 26.3156C29.682 26.2046 29.4897 26.1306 29.2085 25.9901V25.9975Z" fill="black"/>
</svg>
